<svg xmlns="http://www.w3.org/2000/svg" xmlns:xlink="http://www.w3.org/1999/xlink" width="500" zoomAndPan="magnify" viewBox="0 0 375 374.999991" height="500" preserveAspectRatio="xMidYMid meet" version="1.0"><defs><g/><clipPath id="8827e503ce"><path d="M 94.527344 164 L 104.539062 164 L 104.539062 170 L 94.527344 170 Z M 289.210938 164 L 294 164 L 294 170 L 289.210938 170 Z M 123.140625 164 L 135.523438 164 L 135.523438 170 L 123.140625 170 Z M 181.378906 164 L 196.449219 164 L 196.449219 170 L 181.378906 170 Z M 222.988281 164 L 267.230469 164 L 267.230469 170 L 222.988281 170 Z M 50 164 L 53.679688 164 L 53.679688 170 L 50 170 Z M 50 164 " clip-rule="nonzero"/></clipPath><clipPath id="9d3327b841"><rect x="0" width="148" y="0" height="37"/></clipPath></defs><rect x="-37.5" width="450" fill="#ffffff" y="-37.499999" height="449.999989" fill-opacity="1"/><rect x="-37.5" width="450" fill="#000000" y="-37.499999" height="449.999989" fill-opacity="1"/><g clip-path="url(#8827e503ce)"><path fill="#ffffff" d="M 50.878906 164.210938 L 293.246094 164.210938 L 293.246094 169.460938 L 50.878906 169.460938 Z M 50.878906 164.210938 " fill-opacity="1" fill-rule="nonzero"/></g><g fill="#ffffff" fill-opacity="1"><g transform="translate(50.87954, 161.209751)"><g><path d="M 4.625 21.03125 C 4.425781 21.03125 4.191406 20.929688 3.921875 20.734375 C 3.492188 20.421875 3.296875 20.085938 3.328125 19.734375 C 3.367188 19.390625 3.507812 18.984375 3.75 18.515625 C 3.863281 18.234375 3.941406 18.035156 3.984375 17.921875 C 4.679688 15.972656 5.5 14.128906 6.4375 12.390625 C 7.375 10.648438 8.253906 9.117188 9.078125 7.796875 C 10.441406 5.523438 10.71875 2.734375 9.90625 -0.578125 C 9.195312 -3.273438 7.59375 -5.40625 5.09375 -6.96875 C 4.976562 -7.007812 4.800781 -7.109375 4.5625 -7.265625 C 4.132812 -7.492188 3.789062 -7.707031 3.53125 -7.90625 C 3.28125 -8.101562 3.15625 -8.378906 3.15625 -8.734375 C 3.15625 -9.160156 3.300781 -9.441406 3.59375 -9.578125 C 3.894531 -9.710938 4.257812 -9.835938 4.6875 -9.953125 L 5.03125 -10.015625 C 9.25 -11.148438 13.253906 -11.71875 17.046875 -11.71875 C 17.273438 -11.71875 17.582031 -11.71875 17.96875 -11.71875 C 18.363281 -11.71875 18.5625 -11.71875 18.5625 -11.71875 C 20.207031 -11.71875 21.519531 -12.421875 22.5 -13.828125 C 23.3125 -15.035156 24.117188 -16.242188 24.921875 -17.453125 C 25.722656 -18.660156 26.515625 -19.875 27.296875 -21.09375 C 29.753906 -24.84375 32.269531 -28.597656 34.84375 -32.359375 C 37.425781 -36.128906 40.203125 -39.734375 43.171875 -43.171875 C 43.710938 -43.796875 44.273438 -44.390625 44.859375 -44.953125 C 45.453125 -45.523438 46.140625 -45.96875 46.921875 -46.28125 C 47.304688 -46.46875 47.65625 -46.5625 47.96875 -46.5625 C 48.832031 -46.5625 49.476562 -45.9375 49.90625 -44.6875 C 50.300781 -43.519531 50.457031 -42.414062 50.375 -41.375 C 50.300781 -40.34375 50.1875 -39.320312 50.03125 -38.3125 C 49.164062 -33.195312 48 -28.234375 46.53125 -23.421875 C 45.070312 -18.617188 43.582031 -13.894531 42.0625 -9.25 C 41.664062 -8.195312 41.300781 -7.148438 40.96875 -6.109375 C 40.644531 -5.078125 40.304688 -4.035156 39.953125 -2.984375 C 39.054688 -0.253906 38.128906 2.457031 37.171875 5.15625 C 36.210938 7.851562 35.242188 10.566406 34.265625 13.296875 C 34.222656 13.410156 34.164062 13.585938 34.09375 13.828125 C 34.050781 14.054688 33.976562 14.285156 33.875 14.515625 C 33.78125 14.753906 33.640625 14.875 33.453125 14.875 C 33.296875 14.875 33.097656 14.816406 32.859375 14.703125 C 32.660156 14.585938 32.523438 14.472656 32.453125 14.359375 C 32.367188 14.203125 32.363281 14.015625 32.4375 13.796875 C 32.519531 13.578125 32.601562 13.390625 32.6875 13.234375 C 32.757812 12.960938 32.816406 12.769531 32.859375 12.65625 C 33.835938 8.59375 34.960938 4.566406 36.234375 0.578125 C 37.503906 -3.398438 38.78125 -7.300781 40.0625 -11.125 C 40.96875 -13.707031 41.847656 -16.316406 42.703125 -18.953125 C 43.554688 -21.585938 44.375 -24.234375 45.15625 -26.890625 C 45.3125 -27.398438 45.554688 -28.238281 45.890625 -29.40625 C 46.222656 -30.570312 46.570312 -31.894531 46.9375 -33.375 C 47.3125 -34.863281 47.632812 -36.347656 47.90625 -37.828125 C 48.1875 -39.316406 48.375 -40.617188 48.46875 -41.734375 C 48.570312 -42.847656 48.503906 -43.617188 48.265625 -44.046875 C 48.148438 -44.203125 48.015625 -44.320312 47.859375 -44.40625 L 47.796875 -44.40625 L 47.5 -44.453125 C 47.3125 -44.453125 47.140625 -44.40625 46.984375 -44.3125 C 46.828125 -44.21875 46.726562 -44.148438 46.6875 -44.109375 C 46.21875 -43.753906 45.796875 -43.363281 45.421875 -42.9375 C 45.054688 -42.507812 44.695312 -42.082031 44.34375 -41.65625 C 44.144531 -41.414062 43.945312 -41.175781 43.75 -40.9375 C 43.5625 -40.707031 43.367188 -40.476562 43.171875 -40.25 C 41.804688 -38.71875 40.421875 -37.078125 39.015625 -35.328125 C 37.648438 -33.523438 36.34375 -31.71875 35.09375 -29.90625 C 33.84375 -28.09375 32.671875 -26.363281 31.578125 -24.71875 L 30.21875 -22.609375 C 29.09375 -20.890625 27.953125 -19.160156 26.796875 -17.421875 C 25.648438 -15.679688 24.46875 -13.972656 23.25 -12.296875 L 23.015625 -11.953125 L 23.546875 -11.953125 C 25.691406 -11.835938 27.691406 -11.691406 29.546875 -11.515625 C 31.398438 -11.335938 33.25 -11.035156 35.09375 -10.609375 C 35.164062 -10.566406 35.257812 -10.546875 35.375 -10.546875 C 35.5 -10.546875 35.597656 -10.546875 35.671875 -10.546875 C 35.867188 -10.503906 36.046875 -10.472656 36.203125 -10.453125 C 36.359375 -10.429688 36.492188 -10.363281 36.609375 -10.25 C 36.722656 -10.175781 36.800781 -10 36.84375 -9.71875 C 36.882812 -9.332031 36.691406 -9.140625 36.265625 -9.140625 C 36.140625 -9.140625 36.007812 -9.148438 35.875 -9.171875 C 35.738281 -9.191406 35.59375 -9.21875 35.4375 -9.25 L 35.203125 -9.3125 C 34.890625 -9.394531 34.554688 -9.460938 34.203125 -9.515625 C 33.859375 -9.578125 33.507812 -9.664062 33.15625 -9.78125 C 32.6875 -9.863281 32.207031 -9.960938 31.71875 -10.078125 C 31.226562 -10.191406 30.75 -10.269531 30.28125 -10.3125 C 29.113281 -10.507812 28.0625 -10.609375 27.125 -10.609375 C 23.375 -10.609375 20.71875 -9.046875 19.15625 -5.921875 C 18.488281 -4.585938 17.800781 -3.285156 17.09375 -2.015625 C 16.394531 -0.742188 15.675781 0.507812 14.9375 1.75 C 13.644531 3.976562 12.375 6.265625 11.125 8.609375 C 9.875 10.953125 8.800781 13.410156 7.90625 15.984375 C 7.675781 16.609375 7.394531 17.203125 7.0625 17.765625 C 6.726562 18.335938 6.382812 18.878906 6.03125 19.390625 C 5.957031 19.503906 5.859375 19.679688 5.734375 19.921875 C 5.617188 20.191406 5.472656 20.441406 5.296875 20.671875 C 5.117188 20.910156 4.894531 21.03125 4.625 21.03125 Z M 19.5625 -10.375 C 18.664062 -10.445312 17.785156 -10.484375 16.921875 -10.484375 C 15.015625 -10.484375 13.203125 -10.335938 11.484375 -10.046875 C 9.765625 -9.753906 8.082031 -9.429688 6.4375 -9.078125 C 6.09375 -9.003906 5.859375 -8.90625 5.734375 -8.78125 C 5.617188 -8.664062 5.5625 -8.550781 5.5625 -8.4375 C 5.5625 -8.320312 5.609375 -8.164062 5.703125 -7.96875 C 5.804688 -7.769531 6.035156 -7.535156 6.390625 -7.265625 C 9.390625 -4.921875 11.125 -1.695312 11.59375 2.40625 L 11.65625 3.15625 L 20.03125 -10.3125 Z M 19.5625 -10.375 "/></g></g></g><g fill="#ffffff" fill-opacity="1"><g transform="translate(97.442949, 161.209751)"><g><path d="M 32.28125 -9.84375 C 32.507812 -9.6875 32.644531 -9.53125 32.6875 -9.375 C 32.726562 -9.21875 32.695312 -9.070312 32.59375 -8.9375 C 32.5 -8.800781 32.394531 -8.671875 32.28125 -8.546875 C 32.125 -8.390625 32.023438 -8.273438 31.984375 -8.203125 C 28.742188 -3.203125 24.15625 0.972656 18.21875 4.328125 C 17.59375 4.679688 16.789062 4.859375 15.8125 4.859375 L 15.703125 4.859375 C 14.722656 4.859375 13.976562 4.601562 13.46875 4.09375 C 12.925781 3.59375 12.65625 2.832031 12.65625 1.8125 C 12.65625 0.914062 12.828125 0.109375 13.171875 -0.609375 C 13.523438 -1.335938 13.898438 -2.03125 14.296875 -2.6875 L 14.875 -3.625 C 14.988281 -3.863281 15.113281 -4.097656 15.25 -4.328125 C 15.394531 -4.566406 15.523438 -4.800781 15.640625 -5.03125 L 15.703125 -5.21875 C 15.773438 -5.375 15.835938 -5.566406 15.890625 -5.796875 C 15.953125 -6.035156 15.847656 -6.289062 15.578125 -6.5625 C 15.265625 -6.875 14.894531 -7.03125 14.46875 -7.03125 C 14.3125 -7.03125 14.132812 -6.988281 13.9375 -6.90625 C 13.15625 -6.75 12.382812 -6.5625 11.625 -6.34375 C 10.863281 -6.132812 10.09375 -5.914062 9.3125 -5.6875 C 8.332031 -5.332031 7.382812 -4.921875 6.46875 -4.453125 C 5.550781 -3.984375 4.664062 -3.492188 3.8125 -2.984375 C 3.414062 -2.785156 3.03125 -2.578125 2.65625 -2.359375 C 2.289062 -2.148438 1.910156 -1.945312 1.515625 -1.75 L 1.28125 -1.640625 C 1.125 -1.523438 0.945312 -1.425781 0.75 -1.34375 C 0.5625 -1.269531 0.367188 -1.234375 0.171875 -1.234375 C -0.171875 -1.234375 -0.539062 -1.390625 -0.9375 -1.703125 C -1.363281 -2.085938 -1.578125 -2.445312 -1.578125 -2.78125 C -1.578125 -3.113281 -1.539062 -3.457031 -1.46875 -3.8125 L -1.40625 -4.046875 C -0.695312 -7.242188 0.492188 -10.09375 2.171875 -12.59375 L 2.28125 -12.765625 C 2.363281 -12.921875 2.460938 -13.066406 2.578125 -13.203125 C 2.691406 -13.347656 2.828125 -13.421875 2.984375 -13.421875 C 3.097656 -13.421875 3.21875 -13.378906 3.34375 -13.296875 C 3.613281 -13.179688 3.785156 -13.023438 3.859375 -12.828125 C 4.054688 -12.441406 4.066406 -11.984375 3.890625 -11.453125 C 3.710938 -10.921875 3.53125 -10.484375 3.34375 -10.140625 C 3.21875 -9.898438 3.15625 -9.742188 3.15625 -9.671875 L 1.109375 -4.328125 C 1.066406 -4.253906 1.023438 -4.128906 0.984375 -3.953125 C 0.953125 -3.773438 1.015625 -3.628906 1.171875 -3.515625 C 1.328125 -3.398438 1.519531 -3.34375 1.75 -3.34375 C 1.988281 -3.34375 2.265625 -3.390625 2.578125 -3.484375 C 2.890625 -3.578125 3.101562 -3.664062 3.21875 -3.75 C 3.414062 -3.820312 3.59375 -3.90625 3.75 -4 C 3.90625 -4.101562 4.0625 -4.210938 4.21875 -4.328125 C 4.414062 -4.484375 4.597656 -4.617188 4.765625 -4.734375 C 4.941406 -4.859375 5.128906 -4.957031 5.328125 -5.03125 C 5.953125 -5.34375 6.585938 -5.632812 7.234375 -5.90625 C 7.878906 -6.1875 8.535156 -6.460938 9.203125 -6.734375 C 10.796875 -7.398438 12.296875 -7.832031 13.703125 -8.03125 C 13.941406 -8.0625 14.160156 -8.078125 14.359375 -8.078125 C 15.367188 -8.078125 16.164062 -7.75 16.75 -7.09375 C 17.414062 -6.34375 17.59375 -5.421875 17.28125 -4.328125 C 17.125 -3.671875 16.914062 -3.03125 16.65625 -2.40625 C 16.40625 -1.78125 16.164062 -1.15625 15.9375 -0.53125 C 15.78125 -0.175781 15.628906 0.171875 15.484375 0.515625 C 15.347656 0.867188 15.203125 1.222656 15.046875 1.578125 L 15 1.8125 C 14.875 2.007812 14.789062 2.242188 14.75 2.515625 C 14.71875 2.785156 14.816406 3.039062 15.046875 3.28125 C 15.359375 3.59375 15.710938 3.75 16.109375 3.75 C 16.265625 3.75 16.421875 3.726562 16.578125 3.6875 C 16.734375 3.644531 16.890625 3.609375 17.046875 3.578125 C 18.878906 3.023438 20.476562 2.210938 21.84375 1.140625 C 23.21875 0.0664062 24.453125 -1.015625 25.546875 -2.109375 C 26.441406 -3.003906 27.40625 -4.007812 28.4375 -5.125 C 29.46875 -6.238281 30.335938 -7.5 31.046875 -8.90625 L 31.15625 -9.015625 C 31.238281 -9.210938 31.347656 -9.414062 31.484375 -9.625 C 31.617188 -9.84375 31.785156 -9.953125 31.984375 -9.953125 C 32.054688 -9.953125 32.15625 -9.914062 32.28125 -9.84375 Z M 32.28125 -9.84375 "/></g></g></g><g fill="#ffffff" fill-opacity="1"><g transform="translate(128.426647, 161.209751)"><g><path d="M 32.28125 -9.84375 C 32.507812 -9.6875 32.644531 -9.53125 32.6875 -9.375 C 32.726562 -9.21875 32.695312 -9.070312 32.59375 -8.9375 C 32.5 -8.800781 32.394531 -8.671875 32.28125 -8.546875 C 32.125 -8.390625 32.023438 -8.273438 31.984375 -8.203125 C 28.742188 -3.203125 24.15625 0.972656 18.21875 4.328125 C 17.59375 4.679688 16.789062 4.859375 15.8125 4.859375 L 15.703125 4.859375 C 14.722656 4.859375 13.976562 4.601562 13.46875 4.09375 C 12.925781 3.59375 12.65625 2.832031 12.65625 1.8125 C 12.65625 0.914062 12.828125 0.109375 13.171875 -0.609375 C 13.523438 -1.335938 13.898438 -2.03125 14.296875 -2.6875 L 14.875 -3.625 C 14.988281 -3.863281 15.113281 -4.097656 15.25 -4.328125 C 15.394531 -4.566406 15.523438 -4.800781 15.640625 -5.03125 L 15.703125 -5.21875 C 15.773438 -5.375 15.835938 -5.566406 15.890625 -5.796875 C 15.953125 -6.035156 15.847656 -6.289062 15.578125 -6.5625 C 15.265625 -6.875 14.894531 -7.03125 14.46875 -7.03125 C 14.3125 -7.03125 14.132812 -6.988281 13.9375 -6.90625 C 13.15625 -6.75 12.382812 -6.5625 11.625 -6.34375 C 10.863281 -6.132812 10.09375 -5.914062 9.3125 -5.6875 C 8.332031 -5.332031 7.382812 -4.921875 6.46875 -4.453125 C 5.550781 -3.984375 4.664062 -3.492188 3.8125 -2.984375 C 3.414062 -2.785156 3.03125 -2.578125 2.65625 -2.359375 C 2.289062 -2.148438 1.910156 -1.945312 1.515625 -1.75 L 1.28125 -1.640625 C 1.125 -1.523438 0.945312 -1.425781 0.75 -1.34375 C 0.5625 -1.269531 0.367188 -1.234375 0.171875 -1.234375 C -0.171875 -1.234375 -0.539062 -1.390625 -0.9375 -1.703125 C -1.363281 -2.085938 -1.578125 -2.445312 -1.578125 -2.78125 C -1.578125 -3.113281 -1.539062 -3.457031 -1.46875 -3.8125 L -1.40625 -4.046875 C -0.695312 -7.242188 0.492188 -10.09375 2.171875 -12.59375 L 2.28125 -12.765625 C 2.363281 -12.921875 2.460938 -13.066406 2.578125 -13.203125 C 2.691406 -13.347656 2.828125 -13.421875 2.984375 -13.421875 C 3.097656 -13.421875 3.21875 -13.378906 3.34375 -13.296875 C 3.613281 -13.179688 3.785156 -13.023438 3.859375 -12.828125 C 4.054688 -12.441406 4.066406 -11.984375 3.890625 -11.453125 C 3.710938 -10.921875 3.53125 -10.484375 3.34375 -10.140625 C 3.21875 -9.898438 3.15625 -9.742188 3.15625 -9.671875 L 1.109375 -4.328125 C 1.066406 -4.253906 1.023438 -4.128906 0.984375 -3.953125 C 0.953125 -3.773438 1.015625 -3.628906 1.171875 -3.515625 C 1.328125 -3.398438 1.519531 -3.34375 1.75 -3.34375 C 1.988281 -3.34375 2.265625 -3.390625 2.578125 -3.484375 C 2.890625 -3.578125 3.101562 -3.664062 3.21875 -3.75 C 3.414062 -3.820312 3.59375 -3.90625 3.75 -4 C 3.90625 -4.101562 4.0625 -4.210938 4.21875 -4.328125 C 4.414062 -4.484375 4.597656 -4.617188 4.765625 -4.734375 C 4.941406 -4.859375 5.128906 -4.957031 5.328125 -5.03125 C 5.953125 -5.34375 6.585938 -5.632812 7.234375 -5.90625 C 7.878906 -6.1875 8.535156 -6.460938 9.203125 -6.734375 C 10.796875 -7.398438 12.296875 -7.832031 13.703125 -8.03125 C 13.941406 -8.0625 14.160156 -8.078125 14.359375 -8.078125 C 15.367188 -8.078125 16.164062 -7.75 16.75 -7.09375 C 17.414062 -6.34375 17.59375 -5.421875 17.28125 -4.328125 C 17.125 -3.671875 16.914062 -3.03125 16.65625 -2.40625 C 16.40625 -1.78125 16.164062 -1.15625 15.9375 -0.53125 C 15.78125 -0.175781 15.628906 0.171875 15.484375 0.515625 C 15.347656 0.867188 15.203125 1.222656 15.046875 1.578125 L 15 1.8125 C 14.875 2.007812 14.789062 2.242188 14.75 2.515625 C 14.71875 2.785156 14.816406 3.039062 15.046875 3.28125 C 15.359375 3.59375 15.710938 3.75 16.109375 3.75 C 16.265625 3.75 16.421875 3.726562 16.578125 3.6875 C 16.734375 3.644531 16.890625 3.609375 17.046875 3.578125 C 18.878906 3.023438 20.476562 2.210938 21.84375 1.140625 C 23.21875 0.0664062 24.453125 -1.015625 25.546875 -2.109375 C 26.441406 -3.003906 27.40625 -4.007812 28.4375 -5.125 C 29.46875 -6.238281 30.335938 -7.5 31.046875 -8.90625 L 31.15625 -9.015625 C 31.238281 -9.210938 31.347656 -9.414062 31.484375 -9.625 C 31.617188 -9.84375 31.785156 -9.953125 31.984375 -9.953125 C 32.054688 -9.953125 32.15625 -9.914062 32.28125 -9.84375 Z M 32.28125 -9.84375 "/></g></g></g><g fill="#ffffff" fill-opacity="1"><g transform="translate(159.410345, 161.209751)"><g><path d="M 19.921875 -10.375 L 19.96875 -10.140625 C 20.007812 -9.984375 19.84375 -9.863281 19.46875 -9.78125 C 19.101562 -9.707031 18.800781 -9.648438 18.5625 -9.609375 C 18.332031 -9.566406 18.195312 -9.546875 18.15625 -9.546875 C 17.613281 -9.390625 17.066406 -9.242188 16.515625 -9.109375 C 15.972656 -8.972656 15.425781 -8.804688 14.875 -8.609375 C 12.8125 -7.984375 11.035156 -7.300781 9.546875 -6.5625 C 8.410156 -5.976562 7.351562 -5.296875 6.375 -4.515625 C 5.40625 -3.734375 4.785156 -2.539062 4.515625 -0.9375 C 3.960938 1.988281 2.222656 4.722656 -0.703125 7.265625 C -1.835938 8.242188 -2.988281 8.734375 -4.15625 8.734375 C -4.976562 8.734375 -5.679688 8.476562 -6.265625 7.96875 C -7.046875 7.300781 -7.4375 6.421875 -7.4375 5.328125 C -7.4375 4.234375 -7.023438 3.195312 -6.203125 2.21875 C -5.191406 0.9375 -3.992188 -0.171875 -2.609375 -1.109375 C -1.222656 -2.046875 0.191406 -2.882812 1.640625 -3.625 C 2.535156 -4.09375 3.019531 -4.660156 3.09375 -5.328125 C 3.175781 -5.992188 2.867188 -6.851562 2.171875 -7.90625 C 1.890625 -8.257812 1.628906 -8.617188 1.390625 -8.984375 C 1.160156 -9.359375 0.929688 -9.742188 0.703125 -10.140625 L 0.296875 -10.84375 C -0.597656 -12.28125 -0.597656 -13.453125 0.296875 -14.359375 C 3.296875 -17.398438 7.0625 -19.054688 11.59375 -19.328125 L 11.890625 -19.328125 C 12.910156 -19.328125 13.691406 -19.015625 14.234375 -18.390625 C 14.816406 -17.722656 14.992188 -16.828125 14.765625 -15.703125 C 14.492188 -14.523438 13.769531 -13.507812 12.59375 -12.65625 C 12.519531 -12.570312 12.410156 -12.488281 12.265625 -12.40625 C 12.128906 -12.332031 11.984375 -12.296875 11.828125 -12.296875 C 11.671875 -12.296875 11.5 -12.375 11.3125 -12.53125 C 11.070312 -12.6875 10.972656 -12.863281 11.015625 -13.0625 C 11.054688 -13.257812 11.132812 -13.492188 11.25 -13.765625 C 11.476562 -14.191406 11.703125 -14.609375 11.921875 -15.015625 C 12.140625 -15.429688 12.363281 -15.832031 12.59375 -16.21875 C 12.707031 -16.457031 12.796875 -16.691406 12.859375 -16.921875 C 12.921875 -17.160156 12.851562 -17.4375 12.65625 -17.75 C 12.414062 -18.101562 12.082031 -18.28125 11.65625 -18.28125 C 11.582031 -18.28125 11.445312 -18.257812 11.25 -18.21875 L 11.078125 -18.21875 C 7.328125 -17.820312 4.316406 -16.394531 2.046875 -13.9375 C 1.304688 -13.125 1.40625 -12.171875 2.34375 -11.078125 C 2.851562 -10.484375 3.320312 -9.835938 3.75 -9.140625 C 4.175781 -8.398438 4.582031 -7.785156 4.96875 -7.296875 C 5.363281 -6.804688 5.875 -6.5625 6.5 -6.5625 C 6.851562 -6.5625 7.285156 -6.675781 7.796875 -6.90625 C 9.273438 -7.570312 10.785156 -8.160156 12.328125 -8.671875 C 13.867188 -9.179688 15.320312 -9.628906 16.6875 -10.015625 C 16.925781 -10.097656 17.289062 -10.195312 17.78125 -10.3125 C 18.269531 -10.425781 18.726562 -10.484375 19.15625 -10.484375 C 19.382812 -10.484375 19.554688 -10.460938 19.671875 -10.421875 C 19.796875 -10.390625 19.878906 -10.375 19.921875 -10.375 Z M -2.578125 7.140625 C 0.546875 5.503906 2.457031 2.460938 3.15625 -1.984375 L 2.8125 -2.171875 C 2.769531 -2.015625 2.550781 -1.828125 2.15625 -1.609375 C 1.769531 -1.390625 1.421875 -1.203125 1.109375 -1.046875 C 0.722656 -0.859375 0.488281 -0.722656 0.40625 -0.640625 C -0.53125 0.015625 -1.367188 0.65625 -2.109375 1.28125 L -2.515625 1.640625 C -3.140625 2.179688 -3.789062 2.8125 -4.46875 3.53125 C -5.15625 4.257812 -5.539062 5.035156 -5.625 5.859375 C -5.664062 6.367188 -5.546875 6.78125 -5.265625 7.09375 C -4.992188 7.363281 -4.585938 7.5 -4.046875 7.5 C -3.734375 7.5 -3.445312 7.457031 -3.1875 7.375 C -2.9375 7.300781 -2.734375 7.222656 -2.578125 7.140625 Z M -2.578125 7.140625 "/></g></g></g><g fill="#ffffff" fill-opacity="1"><g transform="translate(177.742852, 161.209751)"><g><path d="M 33.796875 -28.765625 C 33.910156 -28.648438 33.988281 -28.472656 34.03125 -28.234375 C 34.03125 -28.117188 34 -28.007812 33.9375 -27.90625 C 33.882812 -27.8125 33.722656 -27.765625 33.453125 -27.765625 C 33.328125 -27.765625 33.195312 -27.773438 33.0625 -27.796875 C 32.925781 -27.816406 32.800781 -27.828125 32.6875 -27.828125 L 32.390625 -27.890625 C 30.242188 -28.160156 28.125 -28.332031 26.03125 -28.40625 C 23.945312 -28.488281 21.925781 -28.53125 19.96875 -28.53125 L 16.984375 -28.46875 C 16.472656 -28.46875 15.953125 -28.476562 15.421875 -28.5 C 14.898438 -28.519531 14.390625 -28.53125 13.890625 -28.53125 C 13.265625 -28.53125 12.734375 -28.453125 12.296875 -28.296875 C 11.867188 -28.140625 11.539062 -27.804688 11.3125 -27.296875 L 10.25 -25.3125 C 7.707031 -20.382812 5.226562 -15.320312 2.8125 -10.125 C 0.394531 -4.9375 -1.535156 0.503906 -2.984375 6.203125 C -4.117188 10.660156 -4.644531 14.742188 -4.5625 18.453125 C -4.5625 18.609375 -4.5625 18.765625 -4.5625 18.921875 C -4.5625 19.273438 -4.550781 19.609375 -4.53125 19.921875 C -4.519531 20.234375 -4.394531 20.523438 -4.15625 20.796875 C -3.800781 21.148438 -3.273438 21.363281 -2.578125 21.4375 C -2.421875 21.4375 -2.300781 21.492188 -2.21875 21.609375 C -2.0625 21.765625 -1.96875 21.960938 -1.9375 22.203125 C -1.894531 22.472656 -1.953125 22.65625 -2.109375 22.75 C -2.265625 22.851562 -2.421875 22.90625 -2.578125 22.90625 L -2.640625 22.90625 C -4.359375 22.90625 -5.453125 22.082031 -5.921875 20.4375 C -6.191406 19.582031 -6.316406 18.753906 -6.296875 17.953125 C -6.273438 17.148438 -6.226562 16.359375 -6.15625 15.578125 L -6.09375 15.109375 C -5.78125 11.597656 -5.191406 8.203125 -4.328125 4.921875 C -3.472656 1.640625 -2.445312 -1.539062 -1.25 -4.625 C -0.0625 -7.707031 1.132812 -10.753906 2.34375 -13.765625 L 2.6875 -14.53125 C 3.28125 -16.007812 3.925781 -17.460938 4.625 -18.890625 C 5.332031 -20.316406 6.015625 -21.734375 6.671875 -23.140625 C 7.023438 -23.804688 7.367188 -24.46875 7.703125 -25.125 C 8.035156 -25.789062 8.359375 -26.457031 8.671875 -27.125 C 8.742188 -27.320312 8.789062 -27.546875 8.8125 -27.796875 C 8.832031 -28.046875 8.6875 -28.445312 8.375 -29 L 8.265625 -29.109375 L 8.140625 -29.109375 C 7.285156 -29.109375 6.40625 -29.109375 5.5 -29.109375 C 4.601562 -29.109375 3.707031 -29.109375 2.8125 -29.109375 C 1.914062 -29.148438 1.007812 -29.171875 0.09375 -29.171875 C -0.820312 -29.171875 -1.75 -29.171875 -2.6875 -29.171875 C -5.582031 -29.171875 -8.144531 -29.132812 -10.375 -29.0625 C -10.84375 -29.019531 -11.3125 -29 -11.78125 -29 C -12.25 -29 -12.71875 -29 -13.1875 -29 C -14.394531 -28.957031 -15.613281 -28.90625 -16.84375 -28.84375 C -18.070312 -28.789062 -19.253906 -28.628906 -20.390625 -28.359375 C -20.734375 -28.273438 -21.023438 -28.234375 -21.265625 -28.234375 C -21.535156 -28.234375 -21.769531 -28.289062 -21.96875 -28.40625 C -22.082031 -28.53125 -22.179688 -28.726562 -22.265625 -29 C -22.335938 -29.34375 -22.160156 -29.515625 -21.734375 -29.515625 C -21.648438 -29.515625 -21.488281 -29.503906 -21.25 -29.484375 C -21.019531 -29.472656 -20.90625 -29.46875 -20.90625 -29.46875 L -20.734375 -29.46875 C -18.546875 -29.65625 -16.390625 -29.78125 -14.265625 -29.84375 C -12.140625 -29.90625 -10.234375 -29.9375 -8.546875 -29.9375 C -7.648438 -29.9375 -6.742188 -29.9375 -5.828125 -29.9375 C -4.910156 -29.9375 -4.003906 -29.9375 -3.109375 -29.9375 C -2.203125 -29.894531 -1.289062 -29.875 -0.375 -29.875 C 0.539062 -29.875 1.445312 -29.875 2.34375 -29.875 C 3.195312 -29.875 4.050781 -29.875 4.90625 -29.875 C 5.769531 -29.875 6.632812 -29.894531 7.5 -29.9375 C 8.320312 -29.96875 9.050781 -30.109375 9.6875 -30.359375 C 10.332031 -30.617188 10.832031 -31.140625 11.1875 -31.921875 C 12.863281 -35.359375 15.148438 -38.640625 18.046875 -41.765625 C 18.078125 -41.847656 18.15625 -41.945312 18.28125 -42.0625 C 18.394531 -42.21875 18.519531 -42.375 18.65625 -42.53125 C 18.789062 -42.6875 18.957031 -42.765625 19.15625 -42.765625 C 19.351562 -42.765625 19.585938 -42.644531 19.859375 -42.40625 C 20.210938 -42.09375 20.347656 -41.78125 20.265625 -41.46875 C 20.191406 -41.15625 20.035156 -40.828125 19.796875 -40.484375 C 19.484375 -40.046875 19.191406 -39.628906 18.921875 -39.234375 C 18.648438 -38.847656 18.375 -38.484375 18.09375 -38.140625 C 17.238281 -36.960938 16.378906 -35.738281 15.515625 -34.46875 C 14.660156 -33.195312 13.863281 -31.800781 13.125 -30.28125 L 12.953125 -29.984375 L 18.15625 -29.984375 C 22.300781 -29.984375 26.988281 -29.675781 32.21875 -29.0625 C 32.289062 -29.0625 32.425781 -29.0625 32.625 -29.0625 C 32.820312 -29.0625 33.023438 -29.039062 33.234375 -29 C 33.453125 -28.957031 33.640625 -28.878906 33.796875 -28.765625 Z M 33.796875 -28.765625 "/></g></g></g><g fill="#ffffff" fill-opacity="1"><g transform="translate(187.816948, 161.209751)"><g><path d="M 20.03125 -8.671875 C 20.300781 -8.828125 20.613281 -8.90625 20.96875 -8.90625 C 21.007812 -8.707031 20.929688 -8.519531 20.734375 -8.34375 C 20.535156 -8.164062 20.359375 -8 20.203125 -7.84375 L 19.796875 -7.5625 C 18.429688 -6.5 17.023438 -5.46875 15.578125 -4.46875 C 14.140625 -3.476562 12.585938 -2.660156 10.921875 -2.015625 C 9.265625 -1.367188 7.421875 -1.046875 5.390625 -1.046875 L 5.15625 -1.046875 C 3.164062 -1.046875 1.625 -1.65625 0.53125 -2.875 C -0.445312 -4 -0.78125 -5.363281 -0.46875 -6.96875 C 0.625 -12.320312 4.097656 -15.78125 9.953125 -17.34375 C 10.265625 -17.414062 10.578125 -17.453125 10.890625 -17.453125 C 11.828125 -17.453125 12.59375 -17.039062 13.1875 -16.21875 C 13.65625 -15.59375 13.800781 -15.054688 13.625 -14.609375 C 13.445312 -14.160156 13.179688 -13.703125 12.828125 -13.234375 C 11.265625 -11.328125 8.6875 -10.097656 5.09375 -9.546875 C 3.800781 -9.347656 2.957031 -8.835938 2.5625 -8.015625 C 2.175781 -7.203125 1.890625 -6.328125 1.703125 -5.390625 L 1.640625 -4.984375 C 1.523438 -4.429688 1.625 -3.921875 1.9375 -3.453125 C 2.363281 -2.867188 3.046875 -2.441406 3.984375 -2.171875 C 4.679688 -1.972656 5.421875 -1.875 6.203125 -1.875 C 6.828125 -1.875 7.429688 -1.929688 8.015625 -2.046875 C 8.609375 -2.160156 9.238281 -2.316406 9.90625 -2.515625 C 11.96875 -3.097656 14.035156 -4.09375 16.109375 -5.5 C 17.003906 -6.09375 17.898438 -6.796875 18.796875 -7.609375 C 18.878906 -7.648438 18.957031 -7.707031 19.03125 -7.78125 C 19.113281 -7.863281 19.191406 -7.945312 19.265625 -8.03125 C 19.390625 -8.144531 19.507812 -8.25 19.625 -8.34375 C 19.738281 -8.445312 19.875 -8.554688 20.03125 -8.671875 Z M 5.796875 -11.65625 L 5.390625 -11.1875 L 6.03125 -11.359375 C 7.394531 -11.671875 8.554688 -12.082031 9.515625 -12.59375 C 10.472656 -13.101562 11.304688 -13.921875 12.015625 -15.046875 L 12.25 -15.515625 L 11.71875 -15.34375 C 10.582031 -14.988281 9.523438 -14.546875 8.546875 -14.015625 C 7.578125 -13.492188 6.660156 -12.707031 5.796875 -11.65625 Z M 5.796875 -11.65625 "/></g></g></g><g fill="#ffffff" fill-opacity="1"><g transform="translate(207.789427, 161.209751)"><g><path d="M 25.015625 -50.78125 C 25.484375 -50.351562 25.664062 -49.953125 25.5625 -49.578125 C 25.46875 -49.210938 25.242188 -48.796875 24.890625 -48.328125 C 24.421875 -47.773438 23.984375 -47.1875 23.578125 -46.5625 C 23.171875 -45.9375 22.75 -45.332031 22.3125 -44.75 C 22.28125 -44.707031 22.253906 -44.664062 22.234375 -44.625 C 22.210938 -44.59375 22.179688 -44.554688 22.140625 -44.515625 C 20.035156 -41.472656 18.023438 -38.410156 16.109375 -35.328125 C 11.816406 -28.335938 7.953125 -21.015625 4.515625 -13.359375 C 1.078125 -5.703125 -1.675781 2.207031 -3.75 10.375 C -5.15625 15.988281 -5.800781 21.125 -5.6875 25.78125 C -5.6875 25.96875 -5.703125 26.160156 -5.734375 26.359375 C -5.734375 26.785156 -5.710938 27.191406 -5.671875 27.578125 C -5.640625 27.972656 -5.46875 28.328125 -5.15625 28.640625 C -4.757812 29.109375 -4.09375 29.398438 -3.15625 29.515625 C -3 29.515625 -2.863281 29.59375 -2.75 29.75 C -2.550781 29.90625 -2.4375 30.140625 -2.40625 30.453125 C -2.363281 30.804688 -2.429688 31.039062 -2.609375 31.15625 C -2.785156 31.28125 -2.988281 31.34375 -3.21875 31.34375 L -3.28125 31.34375 C -5.425781 31.34375 -6.8125 30.328125 -7.4375 28.296875 C -7.75 27.203125 -7.894531 26.144531 -7.875 25.125 C -7.851562 24.113281 -7.785156 23.117188 -7.671875 22.140625 L -7.609375 21.5625 C -7.109375 15.695312 -6.046875 10.019531 -4.421875 4.53125 C -2.796875 -0.945312 -0.851562 -6.273438 1.40625 -11.453125 C 3.664062 -16.628906 6.007812 -21.65625 8.4375 -26.53125 C 10.507812 -30.675781 12.628906 -34.769531 14.796875 -38.8125 C 16.960938 -42.851562 19.609375 -46.570312 22.734375 -49.96875 C 22.765625 -50.039062 22.859375 -50.175781 23.015625 -50.375 C 23.171875 -50.570312 23.335938 -50.757812 23.515625 -50.9375 C 23.691406 -51.113281 23.898438 -51.203125 24.140625 -51.203125 C 24.367188 -51.203125 24.660156 -51.0625 25.015625 -50.78125 Z M 25.015625 -50.78125 "/></g></g></g><g fill="#ffffff" fill-opacity="1"><g transform="translate(218.917787, 161.209751)"><g><path d="M 25.015625 -50.78125 C 25.484375 -50.351562 25.664062 -49.953125 25.5625 -49.578125 C 25.46875 -49.210938 25.242188 -48.796875 24.890625 -48.328125 C 24.421875 -47.773438 23.984375 -47.1875 23.578125 -46.5625 C 23.171875 -45.9375 22.75 -45.332031 22.3125 -44.75 C 22.28125 -44.707031 22.253906 -44.664062 22.234375 -44.625 C 22.210938 -44.59375 22.179688 -44.554688 22.140625 -44.515625 C 20.035156 -41.472656 18.023438 -38.410156 16.109375 -35.328125 C 11.816406 -28.335938 7.953125 -21.015625 4.515625 -13.359375 C 1.078125 -5.703125 -1.675781 2.207031 -3.75 10.375 C -5.15625 15.988281 -5.800781 21.125 -5.6875 25.78125 C -5.6875 25.96875 -5.703125 26.160156 -5.734375 26.359375 C -5.734375 26.785156 -5.710938 27.191406 -5.671875 27.578125 C -5.640625 27.972656 -5.46875 28.328125 -5.15625 28.640625 C -4.757812 29.109375 -4.09375 29.398438 -3.15625 29.515625 C -3 29.515625 -2.863281 29.59375 -2.75 29.75 C -2.550781 29.90625 -2.4375 30.140625 -2.40625 30.453125 C -2.363281 30.804688 -2.429688 31.039062 -2.609375 31.15625 C -2.785156 31.28125 -2.988281 31.34375 -3.21875 31.34375 L -3.28125 31.34375 C -5.425781 31.34375 -6.8125 30.328125 -7.4375 28.296875 C -7.75 27.203125 -7.894531 26.144531 -7.875 25.125 C -7.851562 24.113281 -7.785156 23.117188 -7.671875 22.140625 L -7.609375 21.5625 C -7.109375 15.695312 -6.046875 10.019531 -4.421875 4.53125 C -2.796875 -0.945312 -0.851562 -6.273438 1.40625 -11.453125 C 3.664062 -16.628906 6.007812 -21.65625 8.4375 -26.53125 C 10.507812 -30.675781 12.628906 -34.769531 14.796875 -38.8125 C 16.960938 -42.851562 19.609375 -46.570312 22.734375 -49.96875 C 22.765625 -50.039062 22.859375 -50.175781 23.015625 -50.375 C 23.171875 -50.570312 23.335938 -50.757812 23.515625 -50.9375 C 23.691406 -51.113281 23.898438 -51.203125 24.140625 -51.203125 C 24.367188 -51.203125 24.660156 -51.0625 25.015625 -50.78125 Z M 25.015625 -50.78125 "/></g></g></g><g fill="#ffffff" fill-opacity="1"><g transform="translate(230.046147, 161.209751)"><g><path d="M 30.109375 -11.421875 C 30.304688 -11.378906 30.421875 -11.34375 30.453125 -11.3125 C 30.578125 -11.113281 30.5 -10.859375 30.21875 -10.546875 C 26.195312 -6.328125 21.296875 -2.617188 15.515625 0.578125 L 15.109375 0.765625 C 14.910156 0.921875 14.6875 1.054688 14.4375 1.171875 C 14.1875 1.285156 13.925781 1.34375 13.65625 1.34375 C 13.257812 1.34375 12.847656 1.164062 12.421875 0.8125 C 11.910156 0.34375 11.664062 -0.09375 11.6875 -0.5 C 11.707031 -0.90625 11.796875 -1.34375 11.953125 -1.8125 C 11.992188 -1.894531 12.03125 -1.972656 12.0625 -2.046875 C 12.101562 -2.128906 12.125 -2.207031 12.125 -2.28125 C 12.476562 -3.53125 12.914062 -4.726562 13.4375 -5.875 C 13.96875 -7.03125 14.503906 -8.140625 15.046875 -9.203125 C 15.046875 -9.203125 15.171875 -9.4375 15.421875 -9.90625 C 15.679688 -10.375 15.957031 -10.867188 16.25 -11.390625 C 16.539062 -11.921875 16.75 -12.285156 16.875 -12.484375 C 16.875 -12.515625 16.953125 -12.628906 17.109375 -12.828125 C 17.453125 -13.335938 17.75 -13.863281 18 -14.40625 C 18.257812 -14.957031 18.332031 -15.390625 18.21875 -15.703125 C 18.132812 -15.890625 18.015625 -16.023438 17.859375 -16.109375 C 17.742188 -16.148438 17.648438 -16.171875 17.578125 -16.171875 C 17.179688 -16.171875 16.75 -15.953125 16.28125 -15.515625 C 15.8125 -15.085938 15.578125 -14.875 15.578125 -14.875 C 15.304688 -14.5625 15.035156 -14.171875 14.765625 -13.703125 C 14.492188 -13.234375 14.335938 -12.707031 14.296875 -12.125 L 14.296875 -11.890625 C 14.296875 -11.734375 14.285156 -11.554688 14.265625 -11.359375 C 14.242188 -11.171875 14.175781 -11.078125 14.0625 -11.078125 C 14.019531 -11.078125 13.929688 -11.101562 13.796875 -11.15625 C 13.660156 -11.21875 13.472656 -11.363281 13.234375 -11.59375 L 13.0625 -11.78125 L 12.71875 -11.359375 C 12.59375 -11.285156 12.484375 -11.1875 12.390625 -11.0625 C 12.296875 -10.945312 12.207031 -10.851562 12.125 -10.78125 C 11.65625 -10.269531 11.210938 -9.769531 10.796875 -9.28125 C 10.390625 -8.789062 9.972656 -8.3125 9.546875 -7.84375 C 8.609375 -6.75 7.648438 -5.664062 6.671875 -4.59375 C 5.703125 -3.519531 4.648438 -2.515625 3.515625 -1.578125 L 3.109375 -1.234375 C 2.753906 -0.921875 2.378906 -0.625 1.984375 -0.34375 C 1.597656 -0.0703125 1.171875 0.0625 0.703125 0.0625 C 0.304688 0.0625 -0.101562 -0.0703125 -0.53125 -0.34375 C -1.34375 -0.9375 -1.726562 -1.625 -1.6875 -2.40625 C -1.65625 -3.1875 -1.539062 -3.945312 -1.34375 -4.6875 L -1.28125 -5.03125 C -0.351562 -8.78125 1.320312 -12.003906 3.75 -14.703125 C 5.425781 -16.578125 7.414062 -17.515625 9.71875 -17.515625 L 9.90625 -17.515625 C 10.40625 -17.515625 10.890625 -17.484375 11.359375 -17.421875 C 11.828125 -17.367188 12.179688 -17.1875 12.421875 -16.875 C 13.117188 -15.851562 13.78125 -15.34375 14.40625 -15.34375 C 14.71875 -15.34375 14.988281 -15.441406 15.21875 -15.640625 C 15.457031 -15.835938 15.710938 -16.050781 15.984375 -16.28125 L 16.171875 -16.453125 C 16.515625 -16.804688 16.90625 -17.082031 17.34375 -17.28125 C 17.53125 -17.351562 17.710938 -17.421875 17.890625 -17.484375 C 18.066406 -17.546875 18.234375 -17.578125 18.390625 -17.578125 C 18.660156 -17.578125 18.9375 -17.476562 19.21875 -17.28125 C 19.53125 -17.007812 19.675781 -16.734375 19.65625 -16.453125 C 19.632812 -16.179688 19.546875 -15.890625 19.390625 -15.578125 C 18.722656 -14.140625 18.054688 -12.722656 17.390625 -11.328125 C 16.734375 -9.941406 16.070312 -8.566406 15.40625 -7.203125 L 14.359375 -4.984375 C 14.117188 -4.546875 13.910156 -4.09375 13.734375 -3.625 C 13.554688 -3.15625 13.390625 -2.707031 13.234375 -2.28125 L 12.953125 -1.40625 C 12.796875 -1.007812 12.773438 -0.71875 12.890625 -0.53125 C 12.960938 -0.40625 13.078125 -0.304688 13.234375 -0.234375 C 13.359375 -0.191406 13.5 -0.171875 13.65625 -0.171875 C 14.039062 -0.171875 14.484375 -0.285156 14.984375 -0.515625 C 15.492188 -0.753906 15.847656 -0.929688 16.046875 -1.046875 C 17.296875 -1.910156 18.523438 -2.78125 19.734375 -3.65625 C 20.953125 -4.539062 22.125 -5.410156 23.25 -6.265625 C 23.644531 -6.535156 24.015625 -6.816406 24.359375 -7.109375 C 24.710938 -7.410156 25.085938 -7.695312 25.484375 -7.96875 C 25.710938 -8.164062 25.953125 -8.367188 26.203125 -8.578125 C 26.460938 -8.796875 26.726562 -9.003906 27 -9.203125 C 27.125 -9.316406 27.242188 -9.421875 27.359375 -9.515625 C 27.472656 -9.617188 27.609375 -9.707031 27.765625 -9.78125 C 27.960938 -9.976562 28.175781 -10.164062 28.40625 -10.34375 C 28.644531 -10.519531 28.878906 -10.703125 29.109375 -10.890625 L 29.34375 -11.015625 C 29.457031 -11.085938 29.582031 -11.171875 29.71875 -11.265625 C 29.863281 -11.367188 29.992188 -11.421875 30.109375 -11.421875 Z M 13 -13.65625 C 13.394531 -14.082031 13.378906 -14.585938 12.953125 -15.171875 C 12.441406 -15.835938 11.832031 -16.171875 11.125 -16.171875 C 11.050781 -16.171875 10.972656 -16.171875 10.890625 -16.171875 C 9.921875 -15.972656 9.0625 -15.660156 8.3125 -15.234375 C 6.59375 -14.210938 5.207031 -12.941406 4.15625 -11.421875 C 3.101562 -9.898438 2.1875 -8.394531 1.40625 -6.90625 C 1.320312 -6.75 1.234375 -6.59375 1.140625 -6.4375 C 1.046875 -6.28125 0.957031 -6.125 0.875 -5.96875 C 0.644531 -5.625 0.429688 -5.253906 0.234375 -4.859375 C 0.0351562 -4.472656 -0.117188 -4.046875 -0.234375 -3.578125 C -0.273438 -3.378906 -0.296875 -3.023438 -0.296875 -2.515625 C -0.296875 -2.003906 -0.160156 -1.632812 0.109375 -1.40625 C 0.234375 -1.25 0.390625 -1.171875 0.578125 -1.171875 C 0.734375 -1.171875 0.929688 -1.226562 1.171875 -1.34375 C 2.847656 -2.394531 4.335938 -3.644531 5.640625 -5.09375 C 6.953125 -6.539062 8.21875 -8.003906 9.4375 -9.484375 C 10.019531 -10.191406 10.601562 -10.894531 11.1875 -11.59375 C 11.769531 -12.300781 12.375 -12.988281 13 -13.65625 Z M 13 -13.65625 "/></g></g></g><g fill="#ffffff" fill-opacity="1"><g transform="translate(258.56988, 161.209751)"><g><path d="M 35.84375 -8.96875 C 36.125 -8.414062 36.007812 -7.785156 35.5 -7.078125 C 34.988281 -6.378906 34.539062 -5.796875 34.15625 -5.328125 C 33.914062 -5.097656 33.757812 -4.921875 33.6875 -4.796875 C 29.695312 0.316406 25.300781 3.710938 20.5 5.390625 C 20.144531 5.503906 19.769531 5.617188 19.375 5.734375 C 18.988281 5.859375 18.582031 5.921875 18.15625 5.921875 C 17.300781 5.921875 16.5 5.609375 15.75 4.984375 C 14.96875 4.359375 14.507812 3.644531 14.375 2.84375 C 14.238281 2.039062 14.171875 1.191406 14.171875 0.296875 C 14.210938 -1.578125 14.554688 -3.304688 15.203125 -4.890625 C 15.847656 -6.472656 16.539062 -8.023438 17.28125 -9.546875 L 17.75 -10.546875 C 17.863281 -10.742188 17.976562 -11.035156 18.09375 -11.421875 C 18.21875 -11.816406 18.140625 -12.128906 17.859375 -12.359375 C 17.671875 -12.515625 17.4375 -12.59375 17.15625 -12.59375 C 16.570312 -12.59375 15.878906 -12.289062 15.078125 -11.6875 C 14.285156 -11.082031 13.578125 -10.488281 12.953125 -9.90625 L 12.828125 -9.78125 C 12.359375 -9.394531 11.914062 -8.972656 11.5 -8.515625 C 11.09375 -8.066406 10.695312 -7.628906 10.3125 -7.203125 C 10.070312 -6.972656 9.828125 -6.726562 9.578125 -6.46875 C 9.328125 -6.21875 9.082031 -5.957031 8.84375 -5.6875 L 7.609375 -4.453125 C 6.867188 -3.710938 6.128906 -2.957031 5.390625 -2.1875 C 4.648438 -1.425781 3.890625 -0.675781 3.109375 0.0625 C 2.867188 0.289062 2.613281 0.492188 2.34375 0.671875 C 2.070312 0.847656 1.757812 0.9375 1.40625 0.9375 C 1.050781 0.9375 0.695312 0.816406 0.34375 0.578125 C -0.238281 0.234375 -0.566406 -0.179688 -0.640625 -0.671875 C -0.722656 -1.160156 -0.742188 -1.675781 -0.703125 -2.21875 C -0.585938 -4.601562 -0.148438 -6.867188 0.609375 -9.015625 C 1.367188 -11.171875 2.160156 -13.28125 2.984375 -15.34375 C 3.296875 -16.050781 3.867188 -17.203125 4.703125 -18.796875 C 5.546875 -20.398438 6.546875 -22.242188 7.703125 -24.328125 C 8.859375 -26.421875 10.078125 -28.597656 11.359375 -30.859375 C 12.648438 -33.128906 13.890625 -35.300781 15.078125 -37.375 C 16.273438 -39.445312 17.3125 -41.257812 18.1875 -42.8125 C 19.0625 -44.375 19.695312 -45.507812 20.09375 -46.21875 C 20.675781 -47.226562 21.28125 -48.234375 21.90625 -49.234375 C 22.53125 -50.234375 23.195312 -51.203125 23.90625 -52.140625 C 24.132812 -52.453125 24.460938 -52.921875 24.890625 -53.546875 C 25.328125 -54.171875 25.804688 -54.734375 26.328125 -55.234375 C 26.859375 -55.742188 27.378906 -55.960938 27.890625 -55.890625 C 28.429688 -55.847656 28.691406 -55.601562 28.671875 -55.15625 C 28.648438 -54.707031 28.523438 -54.207031 28.296875 -53.65625 C 27.984375 -52.988281 27.609375 -52.34375 27.171875 -51.71875 C 26.742188 -51.09375 26.472656 -50.703125 26.359375 -50.546875 C 25.535156 -49.492188 24.5 -47.960938 23.25 -45.953125 C 22 -43.941406 20.628906 -41.644531 19.140625 -39.0625 C 17.660156 -36.488281 16.148438 -33.816406 14.609375 -31.046875 C 13.066406 -28.273438 11.613281 -25.570312 10.25 -22.9375 C 8.882812 -20.300781 7.679688 -17.90625 6.640625 -15.75 C 5.609375 -13.601562 4.878906 -11.890625 4.453125 -10.609375 C 3.984375 -9.273438 3.453125 -7.941406 2.859375 -6.609375 C 2.273438 -5.285156 1.847656 -3.921875 1.578125 -2.515625 C 1.503906 -2.003906 1.5625 -1.65625 1.75 -1.46875 C 1.875 -1.34375 2.03125 -1.28125 2.21875 -1.28125 C 2.414062 -1.28125 2.671875 -1.34375 2.984375 -1.46875 C 3.453125 -1.695312 3.863281 -1.988281 4.21875 -2.34375 C 4.570312 -2.695312 4.90625 -3.066406 5.21875 -3.453125 C 5.332031 -3.609375 5.457031 -3.765625 5.59375 -3.921875 C 5.726562 -4.078125 5.875 -4.234375 6.03125 -4.390625 C 6.300781 -4.660156 6.570312 -4.941406 6.84375 -5.234375 C 7.125 -5.535156 7.398438 -5.84375 7.671875 -6.15625 C 7.984375 -6.46875 8.304688 -6.796875 8.640625 -7.140625 C 8.972656 -7.492188 9.296875 -7.828125 9.609375 -8.140625 L 9.78125 -8.3125 C 10.800781 -9.332031 11.851562 -10.335938 12.9375 -11.328125 C 14.03125 -12.328125 15.203125 -13.21875 16.453125 -14 C 16.691406 -14.15625 16.957031 -14.320312 17.25 -14.5 C 17.539062 -14.675781 17.863281 -14.765625 18.21875 -14.765625 C 18.601562 -14.765625 18.972656 -14.628906 19.328125 -14.359375 C 20.304688 -13.648438 20.5625 -12.59375 20.09375 -11.1875 C 19.738281 -10.019531 19.363281 -8.878906 18.96875 -7.765625 C 18.582031 -6.648438 18.195312 -5.566406 17.8125 -4.515625 L 17.515625 -3.6875 C 17.203125 -2.832031 16.898438 -1.953125 16.609375 -1.046875 C 16.316406 -0.148438 16.109375 0.78125 15.984375 1.75 C 15.910156 2.84375 16.109375 3.644531 16.578125 4.15625 C 17.046875 4.625 17.726562 4.859375 18.625 4.859375 C 18.820312 4.859375 19.035156 4.859375 19.265625 4.859375 C 20.285156 4.742188 21.210938 4.5 22.046875 4.125 C 22.890625 3.757812 23.644531 3.359375 24.3125 2.921875 C 26.5 1.554688 28.46875 -0.117188 30.21875 -2.109375 C 30.726562 -2.648438 31.195312 -3.234375 31.625 -3.859375 C 32.0625 -4.484375 32.472656 -5.109375 32.859375 -5.734375 C 33.128906 -6.171875 33.398438 -6.601562 33.671875 -7.03125 C 33.953125 -7.457031 34.226562 -7.882812 34.5 -8.3125 C 34.613281 -8.4375 34.78125 -8.59375 35 -8.78125 C 35.21875 -8.976562 35.421875 -9.078125 35.609375 -9.078125 C 35.691406 -9.078125 35.769531 -9.039062 35.84375 -8.96875 Z M 35.84375 -8.96875 "/></g></g></g><path fill="#ffffff" d="M 293.246094 164.210938 L 310.824219 164.210938 L 310.824219 169.460938 L 293.246094 169.460938 Z M 293.246094 164.210938 " fill-opacity="1" fill-rule="nonzero"/><g fill="#ffffff" fill-opacity="1"><g transform="translate(293.246712, 161.209751)"><g/></g></g><g transform="matrix(1, 0, 0, 1, 188, 222)"><g clip-path="url(#9d3327b841)"><path fill="#ffffff" d="M 1.5625 28.023438 L 146.945312 28.023438 L 146.945312 29.96875 L 1.5625 29.96875 Z M 1.5625 28.023438 " fill-opacity="1" fill-rule="nonzero"/><g fill="#ffffff" fill-opacity="1"><g transform="translate(1.561346, 26.077912)"><g><path d="M 1.015625 0 L 1.015625 -0.84375 C 1.679688 -0.84375 2.222656 -0.90625 2.640625 -1.03125 C 3.054688 -1.164062 3.34375 -1.351562 3.5 -1.59375 C 3.65625 -1.84375 3.75 -2.050781 3.78125 -2.21875 C 3.820312 -2.382812 3.84375 -2.601562 3.84375 -2.875 L 3.84375 -16.609375 C 3.84375 -17.140625 3.726562 -17.484375 3.5 -17.640625 C 3.269531 -17.804688 2.660156 -17.890625 1.671875 -17.890625 L 1.015625 -17.890625 L 1.015625 -18.75 L 5.65625 -18.75 C 5.988281 -18.75 6.195312 -18.71875 6.28125 -18.65625 C 6.375 -18.601562 6.488281 -18.4375 6.625 -18.15625 L 12.578125 -2.78125 L 18.578125 -18.234375 C 18.671875 -18.492188 18.757812 -18.644531 18.84375 -18.6875 C 18.925781 -18.726562 19.140625 -18.75 19.484375 -18.75 L 24.125 -18.75 L 24.125 -17.890625 L 23.46875 -17.890625 C 22.476562 -17.890625 21.867188 -17.804688 21.640625 -17.640625 C 21.410156 -17.484375 21.296875 -17.140625 21.296875 -16.609375 L 21.296875 -2.140625 C 21.296875 -1.617188 21.410156 -1.269531 21.640625 -1.09375 C 21.867188 -0.925781 22.476562 -0.84375 23.46875 -0.84375 L 24.125 -0.84375 L 24.125 0 C 23.445312 -0.0507812 22.140625 -0.078125 20.203125 -0.078125 C 18.242188 -0.078125 16.925781 -0.0507812 16.25 0 L 16.25 -0.84375 L 16.921875 -0.84375 C 17.910156 -0.84375 18.515625 -0.925781 18.734375 -1.09375 C 18.960938 -1.257812 19.078125 -1.609375 19.078125 -2.140625 L 19.078125 -17.890625 L 19.046875 -17.890625 L 12.3125 -0.515625 C 12.1875 -0.171875 12.019531 0 11.8125 0 C 11.582031 0 11.398438 -0.203125 11.265625 -0.609375 L 4.640625 -17.6875 L 4.609375 -17.6875 L 4.609375 -2.875 C 4.609375 -2.601562 4.625 -2.382812 4.65625 -2.21875 C 4.695312 -2.050781 4.796875 -1.84375 4.953125 -1.59375 C 5.109375 -1.351562 5.394531 -1.164062 5.8125 -1.03125 C 6.238281 -0.90625 6.78125 -0.84375 7.4375 -0.84375 L 7.4375 0 C 5.519531 -0.0507812 4.453125 -0.078125 4.234375 -0.078125 C 4.015625 -0.078125 2.941406 -0.0507812 1.015625 0 Z M 1.015625 0 "/></g></g></g><g fill="#ffffff" fill-opacity="1"><g transform="translate(36.404761, 26.077912)"><g><path d="M 0.890625 0 L 0.890625 -0.84375 C 2.515625 -0.875 3.535156 -1.488281 3.953125 -2.6875 L 9.640625 -19.109375 C 9.710938 -19.328125 9.785156 -19.472656 9.859375 -19.546875 C 9.941406 -19.617188 10.085938 -19.65625 10.296875 -19.65625 C 10.398438 -19.65625 10.484375 -19.644531 10.546875 -19.625 C 10.617188 -19.601562 10.675781 -19.5625 10.71875 -19.5 C 10.769531 -19.4375 10.800781 -19.382812 10.8125 -19.34375 C 10.832031 -19.3125 10.867188 -19.234375 10.921875 -19.109375 L 16.84375 -1.9375 C 16.988281 -1.488281 17.207031 -1.191406 17.5 -1.046875 C 17.800781 -0.910156 18.367188 -0.84375 19.203125 -0.84375 L 19.671875 -0.84375 L 19.671875 0 C 18.523438 -0.0507812 17.328125 -0.078125 16.078125 -0.078125 C 14.109375 -0.078125 12.789062 -0.0507812 12.125 0 L 12.125 -0.84375 C 13.644531 -0.84375 14.40625 -1.117188 14.40625 -1.671875 C 14.40625 -1.710938 14.378906 -1.84375 14.328125 -2.0625 L 12.875 -6.265625 L 6.09375 -6.265625 L 4.828125 -2.671875 C 4.785156 -2.597656 4.765625 -2.457031 4.765625 -2.25 C 4.765625 -1.863281 4.941406 -1.53125 5.296875 -1.25 C 5.660156 -0.976562 6.175781 -0.84375 6.84375 -0.84375 L 6.84375 0 C 5.082031 -0.0507812 4.023438 -0.078125 3.671875 -0.078125 C 3.078125 -0.078125 2.148438 -0.0507812 0.890625 0 Z M 6.390625 -7.109375 L 12.578125 -7.109375 L 9.484375 -16.03125 Z M 6.390625 -7.109375 "/></g></g></g><g fill="#ffffff" fill-opacity="1"><g transform="translate(66.705849, 26.077912)"><g><path d="M 0.765625 0 L 0.765625 -0.84375 L 1.484375 -0.84375 C 2.515625 -0.84375 3.144531 -0.925781 3.375 -1.09375 C 3.613281 -1.257812 3.734375 -1.609375 3.734375 -2.140625 L 3.734375 -16.609375 C 3.734375 -17.140625 3.613281 -17.484375 3.375 -17.640625 C 3.132812 -17.804688 2.503906 -17.890625 1.484375 -17.890625 L 0.765625 -17.890625 L 0.765625 -18.75 C 1.410156 -18.695312 2.8125 -18.671875 4.96875 -18.671875 C 7.113281 -18.671875 8.503906 -18.695312 9.140625 -18.75 L 9.140625 -17.890625 L 8.4375 -17.890625 C 7.40625 -17.890625 6.769531 -17.804688 6.53125 -17.640625 C 6.289062 -17.484375 6.171875 -17.140625 6.171875 -16.609375 L 6.171875 -2.140625 C 6.171875 -1.617188 6.289062 -1.269531 6.53125 -1.09375 C 6.769531 -0.925781 7.40625 -0.84375 8.4375 -0.84375 L 9.140625 -0.84375 L 9.140625 0 C 8.492188 -0.0507812 7.097656 -0.078125 4.953125 -0.078125 C 2.804688 -0.078125 1.410156 -0.0507812 0.765625 0 Z M 0.765625 0 "/></g></g></g><g fill="#ffffff" fill-opacity="1"><g transform="translate(86.327783, 26.077912)"><g><path d="M 0.90625 0 L 0.90625 -0.84375 C 1.570312 -0.84375 2.113281 -0.90625 2.53125 -1.03125 C 2.945312 -1.164062 3.234375 -1.351562 3.390625 -1.59375 C 3.546875 -1.84375 3.640625 -2.050781 3.671875 -2.21875 C 3.710938 -2.382812 3.734375 -2.601562 3.734375 -2.875 L 3.734375 -17.21875 C 3.734375 -17.46875 3.695312 -17.625 3.625 -17.6875 C 3.5625 -17.75 3.375 -17.800781 3.0625 -17.84375 C 2.519531 -17.875 2.066406 -17.890625 1.703125 -17.890625 L 0.90625 -17.890625 L 0.90625 -18.75 L 5.578125 -18.75 C 5.835938 -18.75 6 -18.726562 6.0625 -18.6875 C 6.132812 -18.65625 6.238281 -18.554688 6.375 -18.390625 L 16.0625 -4.140625 L 16.0625 -15.875 C 16.0625 -16.144531 16.039062 -16.359375 16 -16.515625 C 15.96875 -16.679688 15.875 -16.890625 15.71875 -17.140625 C 15.5625 -17.390625 15.269531 -17.578125 14.84375 -17.703125 C 14.425781 -17.828125 13.890625 -17.890625 13.234375 -17.890625 L 13.234375 -18.75 C 15.148438 -18.695312 16.21875 -18.671875 16.4375 -18.671875 C 16.65625 -18.671875 17.726562 -18.695312 19.65625 -18.75 L 19.65625 -17.890625 C 18.988281 -17.890625 18.445312 -17.828125 18.03125 -17.703125 C 17.613281 -17.578125 17.328125 -17.390625 17.171875 -17.140625 C 17.015625 -16.890625 16.914062 -16.679688 16.875 -16.515625 C 16.84375 -16.359375 16.828125 -16.144531 16.828125 -15.875 L 16.828125 -0.703125 C 16.828125 -0.410156 16.804688 -0.21875 16.765625 -0.125 C 16.734375 -0.0390625 16.628906 0 16.453125 0 C 16.328125 0 16.171875 -0.117188 15.984375 -0.359375 L 4.765625 -16.828125 C 4.703125 -16.929688 4.613281 -17.039062 4.5 -17.15625 L 4.5 -2.875 C 4.5 -2.601562 4.515625 -2.382812 4.546875 -2.21875 C 4.585938 -2.050781 4.6875 -1.84375 4.84375 -1.59375 C 5 -1.351562 5.285156 -1.164062 5.703125 -1.03125 C 6.128906 -0.90625 6.671875 -0.84375 7.328125 -0.84375 L 7.328125 0 C 5.410156 -0.0507812 4.34375 -0.078125 4.125 -0.078125 C 3.90625 -0.078125 2.832031 -0.0507812 0.90625 0 Z M 0.90625 0 "/></g></g></g><g fill="#ffffff" fill-opacity="1"><g transform="translate(116.628872, 26.077912)"><g><path d="M 0.890625 0 L 0.890625 -0.84375 C 2.515625 -0.875 3.535156 -1.488281 3.953125 -2.6875 L 9.640625 -19.109375 C 9.710938 -19.328125 9.785156 -19.472656 9.859375 -19.546875 C 9.941406 -19.617188 10.085938 -19.65625 10.296875 -19.65625 C 10.398438 -19.65625 10.484375 -19.644531 10.546875 -19.625 C 10.617188 -19.601562 10.675781 -19.5625 10.71875 -19.5 C 10.769531 -19.4375 10.800781 -19.382812 10.8125 -19.34375 C 10.832031 -19.3125 10.867188 -19.234375 10.921875 -19.109375 L 16.84375 -1.9375 C 16.988281 -1.488281 17.207031 -1.191406 17.5 -1.046875 C 17.800781 -0.910156 18.367188 -0.84375 19.203125 -0.84375 L 19.671875 -0.84375 L 19.671875 0 C 18.523438 -0.0507812 17.328125 -0.078125 16.078125 -0.078125 C 14.109375 -0.078125 12.789062 -0.0507812 12.125 0 L 12.125 -0.84375 C 13.644531 -0.84375 14.40625 -1.117188 14.40625 -1.671875 C 14.40625 -1.710938 14.378906 -1.84375 14.328125 -2.0625 L 12.875 -6.265625 L 6.09375 -6.265625 L 4.828125 -2.671875 C 4.785156 -2.597656 4.765625 -2.457031 4.765625 -2.25 C 4.765625 -1.863281 4.941406 -1.53125 5.296875 -1.25 C 5.660156 -0.976562 6.175781 -0.84375 6.84375 -0.84375 L 6.84375 0 C 5.082031 -0.0507812 4.023438 -0.078125 3.671875 -0.078125 C 3.078125 -0.078125 2.148438 -0.0507812 0.890625 0 Z M 6.390625 -7.109375 L 12.578125 -7.109375 L 9.484375 -16.03125 Z M 6.390625 -7.109375 "/></g></g></g></g></g></svg>